<svg id="visual" viewBox="0 0 3480 2160" width="3480" height="2160" xmlns="http://www.w3.org/2000/svg" xmlns:xlink="http://www.w3.org/1999/xlink" version="1.1"><rect x="0" y="0" width="3480" height="2160" fill="#fefefe"></rect><path d="M0 1107L64.5 1088.3C129 1069.7 258 1032.3 386.8 976.8C515.7 921.3 644.3 847.7 773.2 814C902 780.3 1031 786.7 1160 835C1289 883.3 1418 973.7 1546.8 945.3C1675.7 917 1804.3 770 1933.2 748.3C2062 726.7 2191 830.3 2320 890.8C2449 951.3 2578 968.7 2706.8 888.2C2835.7 807.7 2964.3 629.3 3093.2 534C3222 438.7 3351 426.3 3415.5 420.2L3480 414L3480 2161L3415.5 2161C3351 2161 3222 2161 3093.2 2161C2964.3 2161 2835.7 2161 2706.8 2161C2578 2161 2449 2161 2320 2161C2191 2161 2062 2161 1933.2 2161C1804.3 2161 1675.7 2161 1546.8 2161C1418 2161 1289 2161 1160 2161C1031 2161 902 2161 773.2 2161C644.3 2161 515.7 2161 386.8 2161C258 2161 129 2161 64.5 2161L0 2161Z" fill="#fbe0c3"></path><path d="M0 1106L64.5 1107C129 1108 258 1110 386.8 1076.2C515.7 1042.3 644.3 972.7 773.2 954.7C902 936.7 1031 970.3 1160 1036.2C1289 1102 1418 1200 1546.8 1139.2C1675.7 1078.3 1804.3 858.7 1933.2 831.8C2062 805 2191 971 2320 1014C2449 1057 2578 977 2706.8 905C2835.7 833 2964.3 769 3093.2 844.5C3222 920 3351 1135 3415.5 1242.5L3480 1350L3480 2161L3415.5 2161C3351 2161 3222 2161 3093.2 2161C2964.3 2161 2835.7 2161 2706.8 2161C2578 2161 2449 2161 2320 2161C2191 2161 2062 2161 1933.2 2161C1804.3 2161 1675.7 2161 1546.8 2161C1418 2161 1289 2161 1160 2161C1031 2161 902 2161 773.2 2161C644.3 2161 515.7 2161 386.8 2161C258 2161 129 2161 64.5 2161L0 2161Z" fill="#fbd7b7"></path><path d="M0 1112L64.5 1144.8C129 1177.7 258 1243.3 386.8 1229C515.7 1214.7 644.3 1120.3 773.2 1153.2C902 1186 1031 1346 1160 1380.7C1289 1415.3 1418 1324.7 1546.8 1318C1675.7 1311.3 1804.3 1388.7 1933.2 1380.2C2062 1371.7 2191 1277.3 2320 1254.3C2449 1231.3 2578 1279.7 2706.8 1257.5C2835.7 1235.3 2964.3 1142.7 3093.2 1163.8C3222 1185 3351 1320 3415.5 1387.5L3480 1455L3480 2161L3415.5 2161C3351 2161 3222 2161 3093.2 2161C2964.3 2161 2835.7 2161 2706.8 2161C2578 2161 2449 2161 2320 2161C2191 2161 2062 2161 1933.2 2161C1804.3 2161 1675.7 2161 1546.8 2161C1418 2161 1289 2161 1160 2161C1031 2161 902 2161 773.2 2161C644.3 2161 515.7 2161 386.8 2161C258 2161 129 2161 64.5 2161L0 2161Z" fill="#fcceab"></path><path d="M0 1752L64.5 1725.3C129 1698.7 258 1645.3 386.8 1584.3C515.7 1523.3 644.3 1454.7 773.2 1406.7C902 1358.7 1031 1331.3 1160 1380.7C1289 1430 1418 1556 1546.8 1608C1675.7 1660 1804.3 1638 1933.2 1625C2062 1612 2191 1608 2320 1631.2C2449 1654.3 2578 1704.7 2706.8 1686.5C2835.7 1668.3 2964.3 1581.7 3093.2 1509.8C3222 1438 3351 1381 3415.5 1352.5L3480 1324L3480 2161L3415.5 2161C3351 2161 3222 2161 3093.2 2161C2964.3 2161 2835.7 2161 2706.8 2161C2578 2161 2449 2161 2320 2161C2191 2161 2062 2161 1933.2 2161C1804.3 2161 1675.7 2161 1546.8 2161C1418 2161 1289 2161 1160 2161C1031 2161 902 2161 773.2 2161C644.3 2161 515.7 2161 386.8 2161C258 2161 129 2161 64.5 2161L0 2161Z" fill="#fdc5a1"></path><path d="M0 1918L64.5 1890.3C129 1862.7 258 1807.3 386.8 1763C515.7 1718.7 644.3 1685.3 773.2 1706.2C902 1727 1031 1802 1160 1811.5C1289 1821 1418 1765 1546.8 1754C1675.7 1743 1804.3 1777 1933.2 1826C2062 1875 2191 1939 2320 1951.7C2449 1964.3 2578 1925.7 2706.8 1902.8C2835.7 1880 2964.3 1873 3093.2 1825.8C3222 1778.7 3351 1691.3 3415.5 1647.7L3480 1604L3480 2161L3415.5 2161C3351 2161 3222 2161 3093.2 2161C2964.3 2161 2835.7 2161 2706.8 2161C2578 2161 2449 2161 2320 2161C2191 2161 2062 2161 1933.2 2161C1804.3 2161 1675.7 2161 1546.8 2161C1418 2161 1289 2161 1160 2161C1031 2161 902 2161 773.2 2161C644.3 2161 515.7 2161 386.8 2161C258 2161 129 2161 64.5 2161L0 2161Z" fill="#ffbb98"></path></svg>